# xmcd CD database file
# Copyright (C) 1996 Ti Kan
#
# Track frame offsets:
# 	150
# 	12982
# 	30700
# 	44525
# 	62400
# 	80675
# 	97950
# 	111462
# 	130340
# 	146462
# 	167925
# 	184522
# 	213495
# 	230940
# 	253650
#
# Disc length: 3587 seconds
#
# Revision: 1
# Processed by: cddbd v1.4b41PL1 Copyright (c) Steve Scherf et al.
# Submitted via: DiscPlay 3.3.1
#
DISCID=d80e010f
DTITLE=Hadda Brooks - Time Was When
DYEAR=1900
DGENRE=
TTITLE0=Time Was When
TTITLE1=My Romance
TTITLE2=You Won't Let Me Go
TTITLE3=I Must Have That Man
TTITLE4=I'm A Fool To Want You
TTITLE5=I Feel So Good
TTITLE6=Miss Brown To You
TTITLE7=Can You Look Me In The Eye?
TTITLE8=You Go Your Way And I'll Go Crazy
TTITLE9=Close Your Eyes And I'll Be There
TTITLE10=The Thrill Is Gone
TTITLE11=Mama's Blues
TTITLE12=How Do You Speak To An Angel?
TTITLE13=I Hadn't Anyone Till You
TTITLE14=Need A Little Sugar In My Bowl
EXTD=
EXTT0=
EXTT1=
EXTT2=
EXTT3=
EXTT4=
EXTT5=
EXTT6=
EXTT7=
EXTT8=
EXTT9=
EXTT10=
EXTT11=
EXTT12=
EXTT13=
EXTT14=
PLAYORDER=
